<svg width="17" height="17" viewBox="0 0 17 17" fill="none" xmlns="http://www.w3.org/2000/svg">
<path fill-rule="evenodd" clip-rule="evenodd" d="M0.281977 8.50098C-0.118023 3.30098 1.44864 1.00098 2.28198 0.500977L6.78198 0.000976562L13.782 0.500977L15.282 1.50098L16.282 3.50098V8.00098V11.501L15.782 14.501L14.782 15.501L12.282 16.501H9.78198L4.78198 16.001C3.94865 16.001 2.18198 15.901 1.78198 15.501C1.74627 15.4653 1.71055 15.4321 1.67484 15.3989C1.21056 14.9678 0.746262 14.5367 0.281977 8.50098ZM8.28199 3.50098C5.79624 3.50098 3.7821 5.51534 3.7821 8.00087C3.7821 10.4855 5.79624 12.5012 8.28199 12.5012C10.767 12.5012 12.7819 10.4855 12.7819 8.00087C12.7819 5.51534 10.767 3.50098 8.28199 3.50098ZM8.28199 11.0012C6.62534 11.0012 5.28214 9.65796 5.28214 8.00087C5.28214 6.34377 6.62534 5.00101 8.28199 5.00101C9.93865 5.00101 11.2818 6.34377 11.2818 8.00087C11.2818 9.65796 9.93865 11.0012 8.28199 11.0012ZM14.2825 3.12546C14.2825 3.74677 13.7789 4.25043 13.1576 4.25043C12.5363 4.25043 12.0326 3.74677 12.0326 3.12546C12.0326 2.50416 12.5363 2.00049 13.1576 2.00049C13.7789 2.00049 14.2825 2.50416 14.2825 3.12546Z" fill="white"/>
</svg>
